<?xml version="1.0" encoding="UTF-8" standalone="no"?>
<!DOCTYPE svg PUBLIC "-//W3C//DTD SVG 1.1//EN"
 "http://www.w3.org/Graphics/SVG/1.1/DTD/svg11.dtd">
<!-- Generated by graphviz version 2.40.1 (20161225.0304)
 -->
<!-- Title: DeviceTypeHierarchy Pages: 1 -->
<svg width="394pt" height="268pt"
 viewBox="0.00 0.00 394.00 268.00" xmlns="http://www.w3.org/2000/svg" xmlns:xlink="http://www.w3.org/1999/xlink">
<g id="graph0" class="graph" transform="scale(1 1) rotate(0) translate(4 264)">
<title>DeviceTypeHierarchy</title>
<polygon fill="#ffffff" stroke="transparent" points="-4,4 -4,-264 390,-264 390,4 -4,4"/>
<!-- node&#45;dependency&#45;visualizer\n0.2.0 -->
<g id="node1" class="node">
<title>node&#45;dependency&#45;visualizer\n0.2.0</title>
<polygon fill="#ffffff" stroke="#000000" points="270.5,-38 101.5,-38 101.5,0 270.5,0 270.5,-38"/>
<text text-anchor="middle" x="186" y="-22.8" font-family="Times,serif" font-size="14.00" fill="#000000">node&#45;dependency&#45;visualizer</text>
<text text-anchor="middle" x="186" y="-7.8" font-family="Times,serif" font-size="14.00" fill="#000000">0.2.0</text>
</g>
<!-- @angular/cli\n11.2.9 -->
<g id="node2" class="node">
<title>@angular/cli\n11.2.9</title>
<polygon fill="#ffffff" stroke="#000000" points="229.5,-112 142.5,-112 142.5,-74 229.5,-74 229.5,-112"/>
<text text-anchor="middle" x="186" y="-96.8" font-family="Times,serif" font-size="14.00" fill="#000000">@angular/cli</text>
<text text-anchor="middle" x="186" y="-81.8" font-family="Times,serif" font-size="14.00" fill="#000000">11.2.9</text>
</g>
<!-- node&#45;dependency&#45;visualizer\n0.2.0&#45;&gt;@angular/cli\n11.2.9 -->
<g id="edge1" class="edge">
<title>node&#45;dependency&#45;visualizer\n0.2.0&#45;&gt;@angular/cli\n11.2.9</title>
<path fill="none" stroke="#000000" d="M186,-38.0568C186,-45.8507 186,-55.0462 186,-63.6619"/>
<polygon fill="#000000" stroke="#000000" points="182.5001,-63.7505 186,-73.7505 189.5001,-63.7506 182.5001,-63.7505"/>
</g>
<!-- @angular&#45;devkit/architect\n0.1102.9 -->
<g id="node3" class="node">
<title>@angular&#45;devkit/architect\n0.1102.9</title>
<polygon fill="#ffffff" stroke="#000000" points="158,-186 0,-186 0,-148 158,-148 158,-186"/>
<text text-anchor="middle" x="79" y="-170.8" font-family="Times,serif" font-size="14.00" fill="#000000">@angular&#45;devkit/architect</text>
<text text-anchor="middle" x="79" y="-155.8" font-family="Times,serif" font-size="14.00" fill="#000000">0.1102.9</text>
</g>
<!-- @angular/cli\n11.2.9&#45;&gt;@angular&#45;devkit/architect\n0.1102.9 -->
<g id="edge2" class="edge">
<title>@angular/cli\n11.2.9&#45;&gt;@angular&#45;devkit/architect\n0.1102.9</title>
<path fill="none" stroke="#000000" d="M158.4448,-112.0568C145.3177,-121.1354 129.4408,-132.1157 115.342,-141.8663"/>
<polygon fill="#000000" stroke="#000000" points="113.0675,-139.1838 106.8337,-147.7505 117.0492,-144.9411 113.0675,-139.1838"/>
</g>
<!-- @angular&#45;devkit/core\n11.2.9 -->
<g id="node4" class="node">
<title>@angular&#45;devkit/core\n11.2.9</title>
<polygon fill="#ffffff" stroke="#000000" points="253.5,-260 118.5,-260 118.5,-222 253.5,-222 253.5,-260"/>
<text text-anchor="middle" x="186" y="-244.8" font-family="Times,serif" font-size="14.00" fill="#000000">@angular&#45;devkit/core</text>
<text text-anchor="middle" x="186" y="-229.8" font-family="Times,serif" font-size="14.00" fill="#000000">11.2.9</text>
</g>
<!-- @angular/cli\n11.2.9&#45;&gt;@angular&#45;devkit/core\n11.2.9 -->
<g id="edge4" class="edge">
<title>@angular/cli\n11.2.9&#45;&gt;@angular&#45;devkit/core\n11.2.9</title>
<path fill="none" stroke="#000000" d="M186,-112.0454C186,-137.2161 186,-181.8201 186,-211.4024"/>
<polygon fill="#000000" stroke="#000000" points="182.5001,-211.5577 186,-221.5577 189.5001,-211.5577 182.5001,-211.5577"/>
</g>
<!-- @angular&#45;devkit/schematics\n11.2.9 -->
<g id="node5" class="node">
<title>@angular&#45;devkit/schematics\n11.2.9</title>
<polygon fill="#ffffff" stroke="#000000" points="386,-186 214,-186 214,-148 386,-148 386,-186"/>
<text text-anchor="middle" x="300" y="-170.8" font-family="Times,serif" font-size="14.00" fill="#000000">@angular&#45;devkit/schematics</text>
<text text-anchor="middle" x="300" y="-155.8" font-family="Times,serif" font-size="14.00" fill="#000000">11.2.9</text>
</g>
<!-- @angular/cli\n11.2.9&#45;&gt;@angular&#45;devkit/schematics\n11.2.9 -->
<g id="edge5" class="edge">
<title>@angular/cli\n11.2.9&#45;&gt;@angular&#45;devkit/schematics\n11.2.9</title>
<path fill="none" stroke="#000000" d="M215.3578,-112.0568C229.4757,-121.2211 246.5788,-132.323 261.7052,-142.1419"/>
<polygon fill="#000000" stroke="#000000" points="260.052,-145.2415 270.3454,-147.7505 263.8633,-139.3701 260.052,-145.2415"/>
</g>
<!-- @angular&#45;devkit/architect\n0.1102.9&#45;&gt;@angular&#45;devkit/core\n11.2.9 -->
<g id="edge3" class="edge">
<title>@angular&#45;devkit/architect\n0.1102.9&#45;&gt;@angular&#45;devkit/core\n11.2.9</title>
<path fill="none" stroke="#000000" d="M106.5552,-186.0568C119.6823,-195.1354 135.5592,-206.1157 149.658,-215.8663"/>
<polygon fill="#000000" stroke="#000000" points="147.9508,-218.9411 158.1663,-221.7505 151.9325,-213.1838 147.9508,-218.9411"/>
</g>
<!-- @angular&#45;devkit/schematics\n11.2.9&#45;&gt;@angular&#45;devkit/core\n11.2.9 -->
<g id="edge6" class="edge">
<title>@angular&#45;devkit/schematics\n11.2.9&#45;&gt;@angular&#45;devkit/core\n11.2.9</title>
<path fill="none" stroke="#000000" d="M270.6422,-186.0568C256.5243,-195.2211 239.4212,-206.323 224.2948,-216.1419"/>
<polygon fill="#000000" stroke="#000000" points="222.1367,-213.3701 215.6546,-221.7505 225.948,-219.2415 222.1367,-213.3701"/>
</g>
</g>
</svg>
