<?xml version="1.0" encoding="UTF-8" standalone="no"?>
<!DOCTYPE svg PUBLIC "-//W3C//DTD SVG 1.1//EN"
 "http://www.w3.org/Graphics/SVG/1.1/DTD/svg11.dtd">
<!-- Generated by graphviz version 2.40.1 (20161225.0304)
 -->
<!-- Title: DeviceTypeHierarchy Pages: 1 -->
<svg width="2268pt" height="342pt"
 viewBox="0.00 0.00 2268.00 342.00" xmlns="http://www.w3.org/2000/svg" xmlns:xlink="http://www.w3.org/1999/xlink">
<g id="graph0" class="graph" transform="scale(1 1) rotate(0) translate(4 338)">
<title>DeviceTypeHierarchy</title>
<polygon fill="#ffffff" stroke="transparent" points="-4,4 -4,-338 2264,-338 2264,4 -4,4"/>
<!-- node&#45;dependency&#45;visualizer\n0.2.0 -->
<g id="node1" class="node">
<title>node&#45;dependency&#45;visualizer\n0.2.0</title>
<polygon fill="#ffffff" stroke="#000000" points="1398.5,-38 1229.5,-38 1229.5,0 1398.5,0 1398.5,-38"/>
<text text-anchor="middle" x="1314" y="-22.8" font-family="Times,serif" font-size="14.00" fill="#000000">node&#45;dependency&#45;visualizer</text>
<text text-anchor="middle" x="1314" y="-7.8" font-family="Times,serif" font-size="14.00" fill="#000000">0.2.0</text>
</g>
<!-- @angular/cli\n11.2.9 -->
<g id="node2" class="node">
<title>@angular/cli\n11.2.9</title>
<polygon fill="#ffffff" stroke="#000000" points="1234.5,-112 1147.5,-112 1147.5,-74 1234.5,-74 1234.5,-112"/>
<text text-anchor="middle" x="1191" y="-96.8" font-family="Times,serif" font-size="14.00" fill="#000000">@angular/cli</text>
<text text-anchor="middle" x="1191" y="-81.8" font-family="Times,serif" font-size="14.00" fill="#000000">11.2.9</text>
</g>
<!-- node&#45;dependency&#45;visualizer\n0.2.0&#45;&gt;@angular/cli\n11.2.9 -->
<g id="edge1" class="edge">
<title>node&#45;dependency&#45;visualizer\n0.2.0&#45;&gt;@angular/cli\n11.2.9</title>
<path fill="none" stroke="#000000" d="M1282.3244,-38.0568C1266.9496,-47.3067 1248.2935,-58.5307 1231.8611,-68.4169"/>
<polygon fill="#000000" stroke="#000000" points="1229.7602,-65.5962 1222.9957,-73.7505 1233.3688,-71.5944 1229.7602,-65.5962"/>
</g>
<!-- command&#45;line&#45;args\n5.1.1 -->
<g id="node30" class="node">
<title>command&#45;line&#45;args\n5.1.1</title>
<polygon fill="#ffffff" stroke="#000000" points="1375.5,-112 1252.5,-112 1252.5,-74 1375.5,-74 1375.5,-112"/>
<text text-anchor="middle" x="1314" y="-96.8" font-family="Times,serif" font-size="14.00" fill="#000000">command&#45;line&#45;args</text>
<text text-anchor="middle" x="1314" y="-81.8" font-family="Times,serif" font-size="14.00" fill="#000000">5.1.1</text>
</g>
<!-- node&#45;dependency&#45;visualizer\n0.2.0&#45;&gt;command&#45;line&#45;args\n5.1.1 -->
<g id="edge34" class="edge">
<title>node&#45;dependency&#45;visualizer\n0.2.0&#45;&gt;command&#45;line&#45;args\n5.1.1</title>
<path fill="none" stroke="#000000" d="M1314,-38.0568C1314,-45.8507 1314,-55.0462 1314,-63.6619"/>
<polygon fill="#000000" stroke="#000000" points="1310.5001,-63.7505 1314,-73.7505 1317.5001,-63.7506 1310.5001,-63.7505"/>
</g>
<!-- cross&#45;spawn\n7.0.3 -->
<g id="node31" class="node">
<title>cross&#45;spawn\n7.0.3</title>
<polygon fill="#ffffff" stroke="#000000" points="1476.5,-112 1393.5,-112 1393.5,-74 1476.5,-74 1476.5,-112"/>
<text text-anchor="middle" x="1435" y="-96.8" font-family="Times,serif" font-size="14.00" fill="#000000">cross&#45;spawn</text>
<text text-anchor="middle" x="1435" y="-81.8" font-family="Times,serif" font-size="14.00" fill="#000000">7.0.3</text>
</g>
<!-- node&#45;dependency&#45;visualizer\n0.2.0&#45;&gt;cross&#45;spawn\n7.0.3 -->
<g id="edge35" class="edge">
<title>node&#45;dependency&#45;visualizer\n0.2.0&#45;&gt;cross&#45;spawn\n7.0.3</title>
<path fill="none" stroke="#000000" d="M1345.1605,-38.0568C1360.2853,-47.3067 1378.6381,-58.5307 1394.8033,-68.4169"/>
<polygon fill="#000000" stroke="#000000" points="1393.1674,-71.519 1403.5245,-73.7505 1396.8195,-65.5473 1393.1674,-71.519"/>
</g>
<!-- @angular&#45;devkit/architect\n0.1102.9 -->
<g id="node3" class="node">
<title>@angular&#45;devkit/architect\n0.1102.9</title>
<polygon fill="#ffffff" stroke="#000000" points="158,-186 0,-186 0,-148 158,-148 158,-186"/>
<text text-anchor="middle" x="79" y="-170.8" font-family="Times,serif" font-size="14.00" fill="#000000">@angular&#45;devkit/architect</text>
<text text-anchor="middle" x="79" y="-155.8" font-family="Times,serif" font-size="14.00" fill="#000000">0.1102.9</text>
</g>
<!-- @angular/cli\n11.2.9&#45;&gt;@angular&#45;devkit/architect\n0.1102.9 -->
<g id="edge2" class="edge">
<title>@angular/cli\n11.2.9&#45;&gt;@angular&#45;devkit/architect\n0.1102.9</title>
<path fill="none" stroke="#000000" d="M1147.3936,-94.4944C978.2248,-100.4253 365.1866,-123.1902 172,-148 170.7128,-148.1653 169.4168,-148.3384 168.1138,-148.5187"/>
<polygon fill="#000000" stroke="#000000" points="167.3864,-145.0885 158.015,-150.0308 168.4231,-152.0113 167.3864,-145.0885"/>
</g>
<!-- @angular&#45;devkit/core\n11.2.9 -->
<g id="node4" class="node">
<title>@angular&#45;devkit/core\n11.2.9</title>
<polygon fill="#ffffff" stroke="#000000" points="322.5,-260 187.5,-260 187.5,-222 322.5,-222 322.5,-260"/>
<text text-anchor="middle" x="255" y="-244.8" font-family="Times,serif" font-size="14.00" fill="#000000">@angular&#45;devkit/core</text>
<text text-anchor="middle" x="255" y="-229.8" font-family="Times,serif" font-size="14.00" fill="#000000">11.2.9</text>
</g>
<!-- @angular/cli\n11.2.9&#45;&gt;@angular&#45;devkit/core\n11.2.9 -->
<g id="edge5" class="edge">
<title>@angular/cli\n11.2.9&#45;&gt;@angular&#45;devkit/core\n11.2.9</title>
<path fill="none" stroke="#000000" d="M1147.3951,-93.7812C960.836,-97.332 237.8202,-113.298 205,-148 186.714,-167.3345 205.246,-194.6473 224.719,-214.6723"/>
<polygon fill="#000000" stroke="#000000" points="222.2815,-217.184 231.8695,-221.6919 227.1853,-212.1888 222.2815,-217.184"/>
</g>
<!-- @angular&#45;devkit/schematics\n11.2.9 -->
<g id="node10" class="node">
<title>@angular&#45;devkit/schematics\n11.2.9</title>
<polygon fill="#ffffff" stroke="#000000" points="386,-186 214,-186 214,-148 386,-148 386,-186"/>
<text text-anchor="middle" x="300" y="-170.8" font-family="Times,serif" font-size="14.00" fill="#000000">@angular&#45;devkit/schematics</text>
<text text-anchor="middle" x="300" y="-155.8" font-family="Times,serif" font-size="14.00" fill="#000000">11.2.9</text>
</g>
<!-- @angular/cli\n11.2.9&#45;&gt;@angular&#45;devkit/schematics\n11.2.9 -->
<g id="edge11" class="edge">
<title>@angular/cli\n11.2.9&#45;&gt;@angular&#45;devkit/schematics\n11.2.9</title>
<path fill="none" stroke="#000000" d="M1147.0877,-94.2301C1027.0134,-97.9865 683.2819,-111.3703 400,-148 398.7184,-148.1657 397.4285,-148.3375 396.1317,-148.5148"/>
<polygon fill="#000000" stroke="#000000" points="395.4736,-145.0735 386.0807,-149.9749 396.48,-152.0008 395.4736,-145.0735"/>
</g>
<!-- ora\n5.3.0 -->
<g id="node11" class="node">
<title>ora\n5.3.0</title>
<polygon fill="#ffffff" stroke="#000000" points="418,-260 364,-260 364,-222 418,-222 418,-260"/>
<text text-anchor="middle" x="391" y="-244.8" font-family="Times,serif" font-size="14.00" fill="#000000">ora</text>
<text text-anchor="middle" x="391" y="-229.8" font-family="Times,serif" font-size="14.00" fill="#000000">5.3.0</text>
</g>
<!-- @angular/cli\n11.2.9&#45;&gt;ora\n5.3.0 -->
<g id="edge26" class="edge">
<title>@angular/cli\n11.2.9&#45;&gt;ora\n5.3.0</title>
<path fill="none" stroke="#000000" d="M1147.4067,-93.5916C994.9407,-96.0089 491.6557,-107.0466 433,-148 412.0284,-162.6424 401.3529,-190.3484 396.0304,-211.7261"/>
<polygon fill="#000000" stroke="#000000" points="392.5829,-211.1057 393.8259,-221.6273 399.4156,-212.627 392.5829,-211.1057"/>
</g>
<!-- @schematics/angular\n11.2.9 -->
<g id="node12" class="node">
<title>@schematics/angular\n11.2.9</title>
<polygon fill="#ffffff" stroke="#000000" points="576,-186 442,-186 442,-148 576,-148 576,-186"/>
<text text-anchor="middle" x="509" y="-170.8" font-family="Times,serif" font-size="14.00" fill="#000000">@schematics/angular</text>
<text text-anchor="middle" x="509" y="-155.8" font-family="Times,serif" font-size="14.00" fill="#000000">11.2.9</text>
</g>
<!-- @angular/cli\n11.2.9&#45;&gt;@schematics/angular\n11.2.9 -->
<g id="edge15" class="edge">
<title>@angular/cli\n11.2.9&#45;&gt;@schematics/angular\n11.2.9</title>
<path fill="none" stroke="#000000" d="M1147.4284,-94.6989C1047.5356,-99.0858 794.546,-112.9976 586,-148 585.8982,-148.0171 585.7962,-148.0342 585.6943,-148.0515"/>
<polygon fill="#000000" stroke="#000000" points="585.2714,-144.5706 576.0669,-149.8174 586.5343,-151.4557 585.2714,-144.5706"/>
</g>
<!-- @schematics/update\n0.1102.9 -->
<g id="node13" class="node">
<title>@schematics/update\n0.1102.9</title>
<polygon fill="#ffffff" stroke="#000000" points="723.5,-186 594.5,-186 594.5,-148 723.5,-148 723.5,-186"/>
<text text-anchor="middle" x="659" y="-170.8" font-family="Times,serif" font-size="14.00" fill="#000000">@schematics/update</text>
<text text-anchor="middle" x="659" y="-155.8" font-family="Times,serif" font-size="14.00" fill="#000000">0.1102.9</text>
</g>
<!-- @angular/cli\n11.2.9&#45;&gt;@schematics/update\n0.1102.9 -->
<g id="edge16" class="edge">
<title>@angular/cli\n11.2.9&#45;&gt;@schematics/update\n0.1102.9</title>
<path fill="none" stroke="#000000" d="M1147.4548,-96.3044C1067.3911,-102.7963 891.3449,-119.0059 733.7381,-147.9927"/>
<polygon fill="#000000" stroke="#000000" points="733.0547,-144.5597 723.8639,-149.8303 734.3354,-151.4416 733.0547,-144.5597"/>
</g>
<!-- @yarnpkg/lockfile\n1.1.0 -->
<g id="node14" class="node">
<title>@yarnpkg/lockfile\n1.1.0</title>
<polygon fill="#ffffff" stroke="#000000" points="860.5,-186 741.5,-186 741.5,-148 860.5,-148 860.5,-186"/>
<text text-anchor="middle" x="801" y="-170.8" font-family="Times,serif" font-size="14.00" fill="#000000">@yarnpkg/lockfile</text>
<text text-anchor="middle" x="801" y="-155.8" font-family="Times,serif" font-size="14.00" fill="#000000">1.1.0</text>
</g>
<!-- @angular/cli\n11.2.9&#45;&gt;@yarnpkg/lockfile\n1.1.0 -->
<g id="edge17" class="edge">
<title>@angular/cli\n11.2.9&#45;&gt;@yarnpkg/lockfile\n1.1.0</title>
<path fill="none" stroke="#000000" d="M1147.3798,-99.0737C1087.2577,-107.7522 975.4073,-124.9995 870.5469,-147.9884"/>
<polygon fill="#000000" stroke="#000000" points="869.7552,-144.5788 860.7484,-150.1581 871.2686,-151.4133 869.7552,-144.5788"/>
</g>
<!-- ansi&#45;colors\n4.1.1 -->
<g id="node15" class="node">
<title>ansi&#45;colors\n4.1.1</title>
<polygon fill="#ffffff" stroke="#000000" points="955,-186 879,-186 879,-148 955,-148 955,-186"/>
<text text-anchor="middle" x="917" y="-170.8" font-family="Times,serif" font-size="14.00" fill="#000000">ansi&#45;colors</text>
<text text-anchor="middle" x="917" y="-155.8" font-family="Times,serif" font-size="14.00" fill="#000000">4.1.1</text>
</g>
<!-- @angular/cli\n11.2.9&#45;&gt;ansi&#45;colors\n4.1.1 -->
<g id="edge18" class="edge">
<title>@angular/cli\n11.2.9&#45;&gt;ansi&#45;colors\n4.1.1</title>
<path fill="none" stroke="#000000" d="M1147.3819,-101.5831C1103.3602,-110.6844 1033.3748,-126.3513 964.7231,-147.9835"/>
<polygon fill="#000000" stroke="#000000" points="963.5078,-144.6975 955.0478,-151.0755 965.6387,-151.3653 963.5078,-144.6975"/>
</g>
<!-- debug\n4.3.1 -->
<g id="node16" class="node">
<title>debug\n4.3.1</title>
<polygon fill="#ffffff" stroke="#000000" points="1027,-186 973,-186 973,-148 1027,-148 1027,-186"/>
<text text-anchor="middle" x="1000" y="-170.8" font-family="Times,serif" font-size="14.00" fill="#000000">debug</text>
<text text-anchor="middle" x="1000" y="-155.8" font-family="Times,serif" font-size="14.00" fill="#000000">4.3.1</text>
</g>
<!-- @angular/cli\n11.2.9&#45;&gt;debug\n4.3.1 -->
<g id="edge19" class="edge">
<title>@angular/cli\n11.2.9&#45;&gt;debug\n4.3.1</title>
<path fill="none" stroke="#000000" d="M1147.2524,-106.645C1117.9873,-116.1935 1078.5779,-129.8596 1036.5962,-147.9958"/>
<polygon fill="#000000" stroke="#000000" points="1035.072,-144.8423 1027.3164,-152.0603 1037.8805,-151.2542 1035.072,-144.8423"/>
</g>
<!-- ini\n2.0.0 -->
<g id="node17" class="node">
<title>ini\n2.0.0</title>
<polygon fill="#ffffff" stroke="#000000" points="1099,-186 1045,-186 1045,-148 1099,-148 1099,-186"/>
<text text-anchor="middle" x="1072" y="-170.8" font-family="Times,serif" font-size="14.00" fill="#000000">ini</text>
<text text-anchor="middle" x="1072" y="-155.8" font-family="Times,serif" font-size="14.00" fill="#000000">2.0.0</text>
</g>
<!-- @angular/cli\n11.2.9&#45;&gt;ini\n2.0.0 -->
<g id="edge20" class="edge">
<title>@angular/cli\n11.2.9&#45;&gt;ini\n2.0.0</title>
<path fill="none" stroke="#000000" d="M1160.3545,-112.0568C1144.4338,-121.9571 1124.8764,-134.1189 1108.2126,-144.4813"/>
<polygon fill="#000000" stroke="#000000" points="1105.9377,-141.7743 1099.294,-150.0273 1109.6343,-147.7187 1105.9377,-141.7743"/>
</g>
<!-- inquirer\n7.3.3 -->
<g id="node18" class="node">
<title>inquirer\n7.3.3</title>
<polygon fill="#ffffff" stroke="#000000" points="1176.5,-186 1117.5,-186 1117.5,-148 1176.5,-148 1176.5,-186"/>
<text text-anchor="middle" x="1147" y="-170.8" font-family="Times,serif" font-size="14.00" fill="#000000">inquirer</text>
<text text-anchor="middle" x="1147" y="-155.8" font-family="Times,serif" font-size="14.00" fill="#000000">7.3.3</text>
</g>
<!-- @angular/cli\n11.2.9&#45;&gt;inquirer\n7.3.3 -->
<g id="edge21" class="edge">
<title>@angular/cli\n11.2.9&#45;&gt;inquirer\n7.3.3</title>
<path fill="none" stroke="#000000" d="M1179.6689,-112.0568C1174.7801,-120.279 1168.9638,-130.0609 1163.6032,-139.0765"/>
<polygon fill="#000000" stroke="#000000" points="1160.548,-137.3664 1158.4456,-147.7505 1166.5648,-140.944 1160.548,-137.3664"/>
</g>
<!-- jsonc&#45;parser\n3.0.0 -->
<g id="node19" class="node">
<title>jsonc&#45;parser\n3.0.0</title>
<polygon fill="#ffffff" stroke="#000000" points="1277.5,-186 1194.5,-186 1194.5,-148 1277.5,-148 1277.5,-186"/>
<text text-anchor="middle" x="1236" y="-170.8" font-family="Times,serif" font-size="14.00" fill="#000000">jsonc&#45;parser</text>
<text text-anchor="middle" x="1236" y="-155.8" font-family="Times,serif" font-size="14.00" fill="#000000">3.0.0</text>
</g>
<!-- @angular/cli\n11.2.9&#45;&gt;jsonc&#45;parser\n3.0.0 -->
<g id="edge22" class="edge">
<title>@angular/cli\n11.2.9&#45;&gt;jsonc&#45;parser\n3.0.0</title>
<path fill="none" stroke="#000000" d="M1202.5886,-112.0568C1207.5886,-120.279 1213.537,-130.0609 1219.0195,-139.0765"/>
<polygon fill="#000000" stroke="#000000" points="1216.1079,-141.0249 1224.2943,-147.7505 1222.0889,-137.3878 1216.1079,-141.0249"/>
</g>
<!-- npm&#45;package&#45;arg\n8.1.0 -->
<g id="node20" class="node">
<title>npm&#45;package&#45;arg\n8.1.0</title>
<polygon fill="#ffffff" stroke="#000000" points="1408,-186 1296,-186 1296,-148 1408,-148 1408,-186"/>
<text text-anchor="middle" x="1352" y="-170.8" font-family="Times,serif" font-size="14.00" fill="#000000">npm&#45;package&#45;arg</text>
<text text-anchor="middle" x="1352" y="-155.8" font-family="Times,serif" font-size="14.00" fill="#000000">8.1.0</text>
</g>
<!-- @angular/cli\n11.2.9&#45;&gt;npm&#45;package&#45;arg\n8.1.0 -->
<g id="edge23" class="edge">
<title>@angular/cli\n11.2.9&#45;&gt;npm&#45;package&#45;arg\n8.1.0</title>
<path fill="none" stroke="#000000" d="M1232.4615,-112.0568C1253.4132,-121.6868 1279.02,-133.4564 1301.1512,-143.6285"/>
<polygon fill="#000000" stroke="#000000" points="1299.8516,-146.8831 1310.3995,-147.8793 1302.775,-140.5228 1299.8516,-146.8831"/>
</g>
<!-- npm&#45;pick&#45;manifest\n6.1.0 -->
<g id="node21" class="node">
<title>npm&#45;pick&#45;manifest\n6.1.0</title>
<polygon fill="#ffffff" stroke="#000000" points="1547.5,-186 1426.5,-186 1426.5,-148 1547.5,-148 1547.5,-186"/>
<text text-anchor="middle" x="1487" y="-170.8" font-family="Times,serif" font-size="14.00" fill="#000000">npm&#45;pick&#45;manifest</text>
<text text-anchor="middle" x="1487" y="-155.8" font-family="Times,serif" font-size="14.00" fill="#000000">6.1.0</text>
</g>
<!-- @angular/cli\n11.2.9&#45;&gt;npm&#45;pick&#45;manifest\n6.1.0 -->
<g id="edge24" class="edge">
<title>@angular/cli\n11.2.9&#45;&gt;npm&#45;pick&#45;manifest\n6.1.0</title>
<path fill="none" stroke="#000000" d="M1234.5173,-109.1425C1237.7103,-110.1599 1240.8953,-111.125 1244,-112 1316.6388,-132.4708 1338.8981,-129.9486 1416.5936,-147.994"/>
<polygon fill="#000000" stroke="#000000" points="1415.8137,-151.406 1426.3506,-150.2995 1417.4235,-144.5936 1415.8137,-151.406"/>
</g>
<!-- open\n7.4.0 -->
<g id="node22" class="node">
<title>open\n7.4.0</title>
<polygon fill="#ffffff" stroke="#000000" points="1620,-186 1566,-186 1566,-148 1620,-148 1620,-186"/>
<text text-anchor="middle" x="1593" y="-170.8" font-family="Times,serif" font-size="14.00" fill="#000000">open</text>
<text text-anchor="middle" x="1593" y="-155.8" font-family="Times,serif" font-size="14.00" fill="#000000">7.4.0</text>
</g>
<!-- @angular/cli\n11.2.9&#45;&gt;open\n7.4.0 -->
<g id="edge25" class="edge">
<title>@angular/cli\n11.2.9&#45;&gt;open\n7.4.0</title>
<path fill="none" stroke="#000000" d="M1234.7263,-109.5501C1237.8414,-110.4586 1240.954,-111.2888 1244,-112 1377.165,-143.0906 1421.1679,-108.3169 1556.0643,-148.367"/>
<polygon fill="#000000" stroke="#000000" points="1555.3502,-151.8084 1565.9364,-151.3819 1557.3947,-145.1137 1555.3502,-151.8084"/>
</g>
<!-- pacote\n11.2.4 -->
<g id="node23" class="node">
<title>pacote\n11.2.4</title>
<polygon fill="#ffffff" stroke="#000000" points="1692,-186 1638,-186 1638,-148 1692,-148 1692,-186"/>
<text text-anchor="middle" x="1665" y="-170.8" font-family="Times,serif" font-size="14.00" fill="#000000">pacote</text>
<text text-anchor="middle" x="1665" y="-155.8" font-family="Times,serif" font-size="14.00" fill="#000000">11.2.4</text>
</g>
<!-- @angular/cli\n11.2.9&#45;&gt;pacote\n11.2.4 -->
<g id="edge27" class="edge">
<title>@angular/cli\n11.2.9&#45;&gt;pacote\n11.2.4</title>
<path fill="none" stroke="#000000" d="M1234.7094,-109.6247C1237.8284,-110.5154 1240.9466,-111.3213 1244,-112 1408.4863,-148.5625 1462.1947,-100.884 1627.9173,-148.3646"/>
<polygon fill="#000000" stroke="#000000" points="1627.3749,-151.8532 1637.9562,-151.3168 1629.3499,-145.1376 1627.3749,-151.8532"/>
</g>
<!-- resolve\n1.19.0 -->
<g id="node24" class="node">
<title>resolve\n1.19.0</title>
<polygon fill="#ffffff" stroke="#000000" points="1766,-186 1710,-186 1710,-148 1766,-148 1766,-186"/>
<text text-anchor="middle" x="1738" y="-170.8" font-family="Times,serif" font-size="14.00" fill="#000000">resolve</text>
<text text-anchor="middle" x="1738" y="-155.8" font-family="Times,serif" font-size="14.00" fill="#000000">1.19.0</text>
</g>
<!-- @angular/cli\n11.2.9&#45;&gt;resolve\n1.19.0 -->
<g id="edge28" class="edge">
<title>@angular/cli\n11.2.9&#45;&gt;resolve\n1.19.0</title>
<path fill="none" stroke="#000000" d="M1234.6982,-109.676C1237.8199,-110.5545 1240.9417,-111.3436 1244,-112 1439.9942,-154.0648 1502.9716,-94.3625 1699.9886,-148.3569"/>
<polygon fill="#000000" stroke="#000000" points="1699.2038,-151.7717 1709.7774,-151.1021 1701.094,-145.0318 1699.2038,-151.7717"/>
</g>
<!-- rimraf\n3.0.2 -->
<g id="node25" class="node">
<title>rimraf\n3.0.2</title>
<polygon fill="#ffffff" stroke="#000000" points="1838,-186 1784,-186 1784,-148 1838,-148 1838,-186"/>
<text text-anchor="middle" x="1811" y="-170.8" font-family="Times,serif" font-size="14.00" fill="#000000">rimraf</text>
<text text-anchor="middle" x="1811" y="-155.8" font-family="Times,serif" font-size="14.00" fill="#000000">3.0.2</text>
</g>
<!-- @angular/cli\n11.2.9&#45;&gt;rimraf\n3.0.2 -->
<g id="edge29" class="edge">
<title>@angular/cli\n11.2.9&#45;&gt;rimraf\n3.0.2</title>
<path fill="none" stroke="#000000" d="M1234.69,-109.7143C1237.8137,-110.5837 1240.9382,-111.3603 1244,-112 1472.264,-159.6885 1545.3845,-85.5456 1774.0294,-148.4424"/>
<polygon fill="#000000" stroke="#000000" points="1773.405,-151.9025 1783.979,-151.2383 1775.2987,-145.1635 1773.405,-151.9025"/>
</g>
<!-- semver\n7.3.4 -->
<g id="node26" class="node">
<title>semver\n7.3.4</title>
<polygon fill="#ffffff" stroke="#000000" points="1912,-186 1856,-186 1856,-148 1912,-148 1912,-186"/>
<text text-anchor="middle" x="1884" y="-170.8" font-family="Times,serif" font-size="14.00" fill="#000000">semver</text>
<text text-anchor="middle" x="1884" y="-155.8" font-family="Times,serif" font-size="14.00" fill="#000000">7.3.4</text>
</g>
<!-- @angular/cli\n11.2.9&#45;&gt;semver\n7.3.4 -->
<g id="edge30" class="edge">
<title>@angular/cli\n11.2.9&#45;&gt;semver\n7.3.4</title>
<path fill="none" stroke="#000000" d="M1234.6842,-109.7427C1237.8092,-110.6053 1240.9356,-111.3727 1244,-112 1503.8116,-165.1872 1586.0319,-79.3052 1846.0709,-148.4105"/>
<polygon fill="#000000" stroke="#000000" points="1845.2263,-151.8078 1855.7936,-151.044 1847.0565,-145.0512 1845.2263,-151.8078"/>
</g>
<!-- symbol&#45;observable\n3.0.0 -->
<g id="node27" class="node">
<title>symbol&#45;observable\n3.0.0</title>
<polygon fill="#ffffff" stroke="#000000" points="2050,-186 1930,-186 1930,-148 2050,-148 2050,-186"/>
<text text-anchor="middle" x="1990" y="-170.8" font-family="Times,serif" font-size="14.00" fill="#000000">symbol&#45;observable</text>
<text text-anchor="middle" x="1990" y="-155.8" font-family="Times,serif" font-size="14.00" fill="#000000">3.0.0</text>
</g>
<!-- @angular/cli\n11.2.9&#45;&gt;symbol&#45;observable\n3.0.0 -->
<g id="edge31" class="edge">
<title>@angular/cli\n11.2.9&#45;&gt;symbol&#45;observable\n3.0.0</title>
<path fill="none" stroke="#000000" d="M1234.6795,-109.7656C1237.8057,-110.6228 1240.9336,-111.3826 1244,-112 1536.0697,-170.8018 1621.661,-101.3182 1919.7191,-148.0105"/>
<polygon fill="#000000" stroke="#000000" points="1919.5309,-151.5248 1929.958,-149.6469 1920.6357,-144.6125 1919.5309,-151.5248"/>
</g>
<!-- universal&#45;analytics\n0.4.23 -->
<g id="node28" class="node">
<title>universal&#45;analytics\n0.4.23</title>
<polygon fill="#ffffff" stroke="#000000" points="2187.5,-186 2068.5,-186 2068.5,-148 2187.5,-148 2187.5,-186"/>
<text text-anchor="middle" x="2128" y="-170.8" font-family="Times,serif" font-size="14.00" fill="#000000">universal&#45;analytics</text>
<text text-anchor="middle" x="2128" y="-155.8" font-family="Times,serif" font-size="14.00" fill="#000000">0.4.23</text>
</g>
<!-- @angular/cli\n11.2.9&#45;&gt;universal&#45;analytics\n0.4.23 -->
<g id="edge32" class="edge">
<title>@angular/cli\n11.2.9&#45;&gt;universal&#45;analytics\n0.4.23</title>
<path fill="none" stroke="#000000" d="M1234.6732,-109.7973C1237.8009,-110.6469 1240.9309,-111.3964 1244,-112 1596.5475,-181.3316 1699.0042,-93.1368 2058.4465,-148.1499"/>
<polygon fill="#000000" stroke="#000000" points="2057.9211,-151.6102 2068.3405,-149.6902 2058.998,-144.6935 2057.9211,-151.6102"/>
</g>
<!-- uuid\n8.3.2 -->
<g id="node29" class="node">
<title>uuid\n8.3.2</title>
<polygon fill="#ffffff" stroke="#000000" points="2260,-186 2206,-186 2206,-148 2260,-148 2260,-186"/>
<text text-anchor="middle" x="2233" y="-170.8" font-family="Times,serif" font-size="14.00" fill="#000000">uuid</text>
<text text-anchor="middle" x="2233" y="-155.8" font-family="Times,serif" font-size="14.00" fill="#000000">8.3.2</text>
</g>
<!-- @angular/cli\n11.2.9&#45;&gt;uuid\n8.3.2 -->
<g id="edge33" class="edge">
<title>@angular/cli\n11.2.9&#45;&gt;uuid\n8.3.2</title>
<path fill="none" stroke="#000000" d="M1234.6688,-109.8198C1237.7975,-110.664 1240.9289,-111.4062 1244,-112 1448.9258,-151.6213 1976.0085,-94.9364 2195.6906,-148.4309"/>
<polygon fill="#000000" stroke="#000000" points="2195.0432,-151.8782 2205.5996,-150.9762 2196.7848,-145.0983 2195.0432,-151.8782"/>
</g>
<!-- @angular&#45;devkit/architect\n0.1102.9&#45;&gt;@angular&#45;devkit/core\n11.2.9 -->
<g id="edge3" class="edge">
<title>@angular&#45;devkit/architect\n0.1102.9&#45;&gt;@angular&#45;devkit/core\n11.2.9</title>
<path fill="none" stroke="#000000" d="M124.3244,-186.0568C147.4325,-195.7728 175.7209,-207.6667 200.0609,-217.9006"/>
<polygon fill="#000000" stroke="#000000" points="198.9488,-221.2297 209.5237,-221.8793 201.6619,-214.7769 198.9488,-221.2297"/>
</g>
<!-- rxjs\n6.6.3 -->
<g id="node5" class="node">
<title>rxjs\n6.6.3</title>
<polygon fill="#ffffff" stroke="#000000" points="106,-334 52,-334 52,-296 106,-296 106,-334"/>
<text text-anchor="middle" x="79" y="-318.8" font-family="Times,serif" font-size="14.00" fill="#000000">rxjs</text>
<text text-anchor="middle" x="79" y="-303.8" font-family="Times,serif" font-size="14.00" fill="#000000">6.6.3</text>
</g>
<!-- @angular&#45;devkit/architect\n0.1102.9&#45;&gt;rxjs\n6.6.3 -->
<g id="edge4" class="edge">
<title>@angular&#45;devkit/architect\n0.1102.9&#45;&gt;rxjs\n6.6.3</title>
<path fill="none" stroke="#000000" d="M79,-186.0454C79,-211.2161 79,-255.8201 79,-285.4024"/>
<polygon fill="#000000" stroke="#000000" points="75.5001,-285.5577 79,-295.5577 82.5001,-285.5577 75.5001,-285.5577"/>
</g>
<!-- @angular&#45;devkit/core\n11.2.9&#45;&gt;rxjs\n6.6.3 -->
<g id="edge9" class="edge">
<title>@angular&#45;devkit/core\n11.2.9&#45;&gt;rxjs\n6.6.3</title>
<path fill="none" stroke="#000000" d="M202.5631,-260.0148C178.3068,-269.1747 149.0331,-280.7411 115.8287,-295.8128"/>
<polygon fill="#000000" stroke="#000000" points="113.9892,-292.806 106.3601,-300.1577 116.9086,-299.1681 113.9892,-292.806"/>
</g>
<!-- ajv\n6.12.6 -->
<g id="node6" class="node">
<title>ajv\n6.12.6</title>
<polygon fill="#ffffff" stroke="#000000" points="178,-334 124,-334 124,-296 178,-296 178,-334"/>
<text text-anchor="middle" x="151" y="-318.8" font-family="Times,serif" font-size="14.00" fill="#000000">ajv</text>
<text text-anchor="middle" x="151" y="-303.8" font-family="Times,serif" font-size="14.00" fill="#000000">6.12.6</text>
</g>
<!-- @angular&#45;devkit/core\n11.2.9&#45;&gt;ajv\n6.12.6 -->
<g id="edge6" class="edge">
<title>@angular&#45;devkit/core\n11.2.9&#45;&gt;ajv\n6.12.6</title>
<path fill="none" stroke="#000000" d="M228.2174,-260.0568C215.4583,-269.1354 200.0266,-280.1157 186.323,-289.8663"/>
<polygon fill="#000000" stroke="#000000" points="184.1721,-287.1012 178.0533,-295.7505 188.2304,-292.8047 184.1721,-287.1012"/>
</g>
<!-- fast&#45;json&#45;stable&#45;stringify\n2.1.0 -->
<g id="node7" class="node">
<title>fast&#45;json&#45;stable&#45;stringify\n2.1.0</title>
<polygon fill="#ffffff" stroke="#000000" points="344.5,-334 195.5,-334 195.5,-296 344.5,-296 344.5,-334"/>
<text text-anchor="middle" x="270" y="-318.8" font-family="Times,serif" font-size="14.00" fill="#000000">fast&#45;json&#45;stable&#45;stringify</text>
<text text-anchor="middle" x="270" y="-303.8" font-family="Times,serif" font-size="14.00" fill="#000000">2.1.0</text>
</g>
<!-- @angular&#45;devkit/core\n11.2.9&#45;&gt;fast&#45;json&#45;stable&#45;stringify\n2.1.0 -->
<g id="edge7" class="edge">
<title>@angular&#45;devkit/core\n11.2.9&#45;&gt;fast&#45;json&#45;stable&#45;stringify\n2.1.0</title>
<path fill="none" stroke="#000000" d="M258.8629,-260.0568C260.4601,-267.9364 262.3477,-277.2484 264.1106,-285.9457"/>
<polygon fill="#000000" stroke="#000000" points="260.6811,-286.6452 266.0981,-295.7505 267.5416,-285.2545 260.6811,-286.6452"/>
</g>
<!-- magic&#45;string\n0.25.7 -->
<g id="node8" class="node">
<title>magic&#45;string\n0.25.7</title>
<polygon fill="#ffffff" stroke="#000000" points="449,-334 363,-334 363,-296 449,-296 449,-334"/>
<text text-anchor="middle" x="406" y="-318.8" font-family="Times,serif" font-size="14.00" fill="#000000">magic&#45;string</text>
<text text-anchor="middle" x="406" y="-303.8" font-family="Times,serif" font-size="14.00" fill="#000000">0.25.7</text>
</g>
<!-- @angular&#45;devkit/core\n11.2.9&#45;&gt;magic&#45;string\n0.25.7 -->
<g id="edge8" class="edge">
<title>@angular&#45;devkit/core\n11.2.9&#45;&gt;magic&#45;string\n0.25.7</title>
<path fill="none" stroke="#000000" d="M293.8863,-260.0568C313.3611,-269.6008 337.1244,-281.2464 357.7528,-291.3557"/>
<polygon fill="#000000" stroke="#000000" points="356.4635,-294.6215 366.9834,-295.8793 359.5439,-288.3357 356.4635,-294.6215"/>
</g>
<!-- source&#45;map\n0.7.3 -->
<g id="node9" class="node">
<title>source&#45;map\n0.7.3</title>
<polygon fill="#ffffff" stroke="#000000" points="547,-334 467,-334 467,-296 547,-296 547,-334"/>
<text text-anchor="middle" x="507" y="-318.8" font-family="Times,serif" font-size="14.00" fill="#000000">source&#45;map</text>
<text text-anchor="middle" x="507" y="-303.8" font-family="Times,serif" font-size="14.00" fill="#000000">0.7.3</text>
</g>
<!-- @angular&#45;devkit/core\n11.2.9&#45;&gt;source&#45;map\n0.7.3 -->
<g id="edge10" class="edge">
<title>@angular&#45;devkit/core\n11.2.9&#45;&gt;source&#45;map\n0.7.3</title>
<path fill="none" stroke="#000000" d="M322.7319,-257.4469C360.0435,-266.9503 407.29,-279.7056 457.087,-295.8419"/>
<polygon fill="#000000" stroke="#000000" points="456.1522,-299.2186 466.7449,-299.0039 458.3303,-292.5661 456.1522,-299.2186"/>
</g>
<!-- @angular&#45;devkit/schematics\n11.2.9&#45;&gt;@angular&#45;devkit/core\n11.2.9 -->
<g id="edge12" class="edge">
<title>@angular&#45;devkit/schematics\n11.2.9&#45;&gt;@angular&#45;devkit/core\n11.2.9</title>
<path fill="none" stroke="#000000" d="M288.4114,-186.0568C283.4114,-194.279 277.463,-204.0609 271.9805,-213.0765"/>
<polygon fill="#000000" stroke="#000000" points="268.9111,-211.3878 266.7057,-221.7505 274.8921,-215.0249 268.9111,-211.3878"/>
</g>
<!-- @angular&#45;devkit/schematics\n11.2.9&#45;&gt;rxjs\n6.6.3 -->
<g id="edge14" class="edge">
<title>@angular&#45;devkit/schematics\n11.2.9&#45;&gt;rxjs\n6.6.3</title>
<path fill="none" stroke="#000000" d="M247.8611,-186.0357C225.4628,-195.3239 199.5423,-207.6122 178,-222 149.6082,-240.9625 121.6654,-268.2224 102.7449,-288.3293"/>
<polygon fill="#000000" stroke="#000000" points="99.9381,-286.2089 95.7071,-295.9223 105.072,-290.9674 99.9381,-286.2089"/>
</g>
<!-- @angular&#45;devkit/schematics\n11.2.9&#45;&gt;ora\n5.3.0 -->
<g id="edge13" class="edge">
<title>@angular&#45;devkit/schematics\n11.2.9&#45;&gt;ora\n5.3.0</title>
<path fill="none" stroke="#000000" d="M323.4348,-186.0568C334.3883,-194.9641 347.593,-205.702 359.4121,-215.3131"/>
<polygon fill="#000000" stroke="#000000" points="357.3616,-218.1569 367.3284,-221.7505 361.778,-212.7259 357.3616,-218.1569"/>
</g>
</g>
</svg>
