<?xml version="1.0" encoding="UTF-8" standalone="no"?>
<!DOCTYPE svg PUBLIC "-//W3C//DTD SVG 1.1//EN"
 "http://www.w3.org/Graphics/SVG/1.1/DTD/svg11.dtd">
<!-- Generated by graphviz version 2.38.0 (20140413.2041)
 -->
<!-- Title: DeviceTypeHierarchy_Oblamatikproducts Pages: 1 -->
<svg width="1467pt" height="347pt"
 viewBox="0.00 0.00 1467.00 347.00" xmlns="http://www.w3.org/2000/svg" xmlns:xlink="http://www.w3.org/1999/xlink">
<g id="graph0" class="graph" transform="scale(1 1) rotate(0) translate(4 343)">
<title>DeviceTypeHierarchy_Oblamatikproducts</title>
<polygon fill="white" stroke="none" points="-4,4 -4,-343 1463,-343 1463,4 -4,4"/>
<!-- node&#45;dependency&#45;visualizer\n0.0.0 -->
<g id="node1" class="node"><title>node&#45;dependency&#45;visualizer\n0.0.0</title>
<polygon fill="white" stroke="black" points="844.5,-0.5 844.5,-38.5 1013.5,-38.5 1013.5,-0.5 844.5,-0.5"/>
<text text-anchor="middle" x="929" y="-23.3" font-family="Times,serif" font-size="14.00">node&#45;dependency&#45;visualizer</text>
<text text-anchor="middle" x="929" y="-8.3" font-family="Times,serif" font-size="14.00">0.0.0</text>
</g>
<!-- @angular/cli\n7.3.5 -->
<g id="node2" class="node"><title>@angular/cli\n7.3.5</title>
<polygon fill="white" stroke="black" points="824.5,-75.5 824.5,-113.5 911.5,-113.5 911.5,-75.5 824.5,-75.5"/>
<text text-anchor="middle" x="868" y="-98.3" font-family="Times,serif" font-size="14.00">@angular/cli</text>
<text text-anchor="middle" x="868" y="-83.3" font-family="Times,serif" font-size="14.00">7.3.5</text>
</g>
<!-- node&#45;dependency&#45;visualizer\n0.0.0&#45;&gt;@angular/cli\n7.3.5 -->
<g id="edge1" class="edge"><title>node&#45;dependency&#45;visualizer\n0.0.0&#45;&gt;@angular/cli\n7.3.5</title>
<path fill="none" stroke="black" d="M913.921,-38.5449C906.59,-47.3191 897.644,-58.0241 889.603,-67.647"/>
<polygon fill="black" stroke="black" points="886.843,-65.4918 883.117,-75.4096 892.215,-69.9803 886.843,-65.4918"/>
</g>
<!-- command&#45;line&#45;args\n5.0.2 -->
<g id="node21" class="node"><title>command&#45;line&#45;args\n5.0.2</title>
<polygon fill="white" stroke="black" points="929.5,-75.5 929.5,-113.5 1052.5,-113.5 1052.5,-75.5 929.5,-75.5"/>
<text text-anchor="middle" x="991" y="-98.3" font-family="Times,serif" font-size="14.00">command&#45;line&#45;args</text>
<text text-anchor="middle" x="991" y="-83.3" font-family="Times,serif" font-size="14.00">5.0.2</text>
</g>
<!-- node&#45;dependency&#45;visualizer\n0.0.0&#45;&gt;command&#45;line&#45;args\n5.0.2 -->
<g id="edge24" class="edge"><title>node&#45;dependency&#45;visualizer\n0.0.0&#45;&gt;command&#45;line&#45;args\n5.0.2</title>
<path fill="none" stroke="black" d="M944.326,-38.5449C951.778,-47.3191 960.87,-58.0241 969.043,-67.647"/>
<polygon fill="black" stroke="black" points="966.494,-70.0534 975.636,-75.4096 971.83,-65.5219 966.494,-70.0534"/>
</g>
<!-- @angular&#45;devkit/architect\n0.13.5 -->
<g id="node3" class="node"><title>@angular&#45;devkit/architect\n0.13.5</title>
<polygon fill="white" stroke="black" points="190,-150.5 190,-188.5 348,-188.5 348,-150.5 190,-150.5"/>
<text text-anchor="middle" x="269" y="-173.3" font-family="Times,serif" font-size="14.00">@angular&#45;devkit/architect</text>
<text text-anchor="middle" x="269" y="-158.3" font-family="Times,serif" font-size="14.00">0.13.5</text>
</g>
<!-- @angular/cli\n7.3.5&#45;&gt;@angular&#45;devkit/architect\n0.13.5 -->
<g id="edge2" class="edge"><title>@angular/cli\n7.3.5&#45;&gt;@angular&#45;devkit/architect\n0.13.5</title>
<path fill="none" stroke="black" d="M824.174,-98.8972C736.229,-106.006 532.092,-123.975 362,-150 360.719,-150.196 359.428,-150.398 358.13,-150.604"/>
<polygon fill="black" stroke="black" points="357.355,-147.185 348.063,-152.274 358.501,-154.09 357.355,-147.185"/>
</g>
<!-- @angular&#45;devkit/core\n7.3.5 -->
<g id="node4" class="node"><title>@angular&#45;devkit/core\n7.3.5</title>
<polygon fill="white" stroke="black" points="201.5,-225.5 201.5,-263.5 336.5,-263.5 336.5,-225.5 201.5,-225.5"/>
<text text-anchor="middle" x="269" y="-248.3" font-family="Times,serif" font-size="14.00">@angular&#45;devkit/core</text>
<text text-anchor="middle" x="269" y="-233.3" font-family="Times,serif" font-size="14.00">7.3.5</text>
</g>
<!-- @angular/cli\n7.3.5&#45;&gt;@angular&#45;devkit/core\n7.3.5 -->
<g id="edge5" class="edge"><title>@angular/cli\n7.3.5&#45;&gt;@angular&#45;devkit/core\n7.3.5</title>
<path fill="none" stroke="black" d="M824.124,-96.8251C721.735,-100.508 470.03,-113.148 395,-150 373.278,-160.669 375.872,-173.85 357,-189 342.826,-200.379 326.114,-211.274 311.083,-220.292"/>
<polygon fill="black" stroke="black" points="309.298,-217.281 302.46,-225.373 312.852,-223.312 309.298,-217.281"/>
</g>
<!-- @angular&#45;devkit/schematics\n7.3.5 -->
<g id="node10" class="node"><title>@angular&#45;devkit/schematics\n7.3.5</title>
<polygon fill="white" stroke="black" points="0,-150.5 0,-188.5 172,-188.5 172,-150.5 0,-150.5"/>
<text text-anchor="middle" x="86" y="-173.3" font-family="Times,serif" font-size="14.00">@angular&#45;devkit/schematics</text>
<text text-anchor="middle" x="86" y="-158.3" font-family="Times,serif" font-size="14.00">7.3.5</text>
</g>
<!-- @angular/cli\n7.3.5&#45;&gt;@angular&#45;devkit/schematics\n7.3.5 -->
<g id="edge11" class="edge"><title>@angular/cli\n7.3.5&#45;&gt;@angular&#45;devkit/schematics\n7.3.5</title>
<path fill="none" stroke="black" d="M824.413,-97.2439C716.932,-101.911 430.516,-116.575 182.079,-149.937"/>
<polygon fill="black" stroke="black" points="181.582,-146.472 172.143,-151.284 182.522,-153.408 181.582,-146.472"/>
</g>
<!-- @schematics/angular\n7.3.5 -->
<g id="node11" class="node"><title>@schematics/angular\n7.3.5</title>
<polygon fill="white" stroke="black" points="404,-150.5 404,-188.5 538,-188.5 538,-150.5 404,-150.5"/>
<text text-anchor="middle" x="471" y="-173.3" font-family="Times,serif" font-size="14.00">@schematics/angular</text>
<text text-anchor="middle" x="471" y="-158.3" font-family="Times,serif" font-size="14.00">7.3.5</text>
</g>
<!-- @angular/cli\n7.3.5&#45;&gt;@schematics/angular\n7.3.5 -->
<g id="edge14" class="edge"><title>@angular/cli\n7.3.5&#45;&gt;@schematics/angular\n7.3.5</title>
<path fill="none" stroke="black" d="M824.35,-101.984C762.589,-111.373 646.268,-129.851 548,-150 547.899,-150.021 547.798,-150.041 547.697,-150.062"/>
<polygon fill="black" stroke="black" points="547.189,-146.592 538.132,-152.09 548.641,-153.44 547.189,-146.592"/>
</g>
<!-- @schematics/update\n0.13.5 -->
<g id="node12" class="node"><title>@schematics/update\n0.13.5</title>
<polygon fill="white" stroke="black" points="556.5,-150.5 556.5,-188.5 685.5,-188.5 685.5,-150.5 556.5,-150.5"/>
<text text-anchor="middle" x="621" y="-173.3" font-family="Times,serif" font-size="14.00">@schematics/update</text>
<text text-anchor="middle" x="621" y="-158.3" font-family="Times,serif" font-size="14.00">0.13.5</text>
</g>
<!-- @angular/cli\n7.3.5&#45;&gt;@schematics/update\n0.13.5 -->
<g id="edge15" class="edge"><title>@angular/cli\n7.3.5&#45;&gt;@schematics/update\n0.13.5</title>
<path fill="none" stroke="black" d="M824.41,-108.383C787.792,-119.205 734.748,-134.882 692.008,-147.514"/>
<polygon fill="black" stroke="black" points="690.819,-144.216 682.221,-150.406 692.803,-150.928 690.819,-144.216"/>
</g>
<!-- @yarnpkg/lockfile\n1.1.0 -->
<g id="node13" class="node"><title>@yarnpkg/lockfile\n1.1.0</title>
<polygon fill="white" stroke="black" points="703.5,-150.5 703.5,-188.5 822.5,-188.5 822.5,-150.5 703.5,-150.5"/>
<text text-anchor="middle" x="763" y="-173.3" font-family="Times,serif" font-size="14.00">@yarnpkg/lockfile</text>
<text text-anchor="middle" x="763" y="-158.3" font-family="Times,serif" font-size="14.00">1.1.0</text>
</g>
<!-- @angular/cli\n7.3.5&#45;&gt;@yarnpkg/lockfile\n1.1.0 -->
<g id="edge16" class="edge"><title>@angular/cli\n7.3.5&#45;&gt;@yarnpkg/lockfile\n1.1.0</title>
<path fill="none" stroke="black" d="M842.045,-113.545C828.541,-122.933 811.858,-134.532 797.304,-144.651"/>
<polygon fill="black" stroke="black" points="795.233,-141.828 789.02,-150.41 799.229,-147.575 795.233,-141.828"/>
</g>
<!-- ini\n1.3.5 -->
<g id="node14" class="node"><title>ini\n1.3.5</title>
<polygon fill="white" stroke="black" points="841,-150.5 841,-188.5 895,-188.5 895,-150.5 841,-150.5"/>
<text text-anchor="middle" x="868" y="-173.3" font-family="Times,serif" font-size="14.00">ini</text>
<text text-anchor="middle" x="868" y="-158.3" font-family="Times,serif" font-size="14.00">1.3.5</text>
</g>
<!-- @angular/cli\n7.3.5&#45;&gt;ini\n1.3.5 -->
<g id="edge17" class="edge"><title>@angular/cli\n7.3.5&#45;&gt;ini\n1.3.5</title>
<path fill="none" stroke="black" d="M868,-113.545C868,-121.617 868,-131.324 868,-140.318"/>
<polygon fill="black" stroke="black" points="864.5,-140.41 868,-150.41 871.5,-140.41 864.5,-140.41"/>
</g>
<!-- inquirer\n6.2.1 -->
<g id="node15" class="node"><title>inquirer\n6.2.1</title>
<polygon fill="white" stroke="black" points="913.5,-150.5 913.5,-188.5 972.5,-188.5 972.5,-150.5 913.5,-150.5"/>
<text text-anchor="middle" x="943" y="-173.3" font-family="Times,serif" font-size="14.00">inquirer</text>
<text text-anchor="middle" x="943" y="-158.3" font-family="Times,serif" font-size="14.00">6.2.1</text>
</g>
<!-- @angular/cli\n7.3.5&#45;&gt;inquirer\n6.2.1 -->
<g id="edge18" class="edge"><title>@angular/cli\n7.3.5&#45;&gt;inquirer\n6.2.1</title>
<path fill="none" stroke="black" d="M886.539,-113.545C895.734,-122.495 906.993,-133.453 917.031,-143.223"/>
<polygon fill="black" stroke="black" points="914.807,-145.943 924.414,-150.41 919.689,-140.927 914.807,-145.943"/>
</g>
<!-- npm&#45;package&#45;arg\n6.1.0 -->
<g id="node16" class="node"><title>npm&#45;package&#45;arg\n6.1.0</title>
<polygon fill="white" stroke="black" points="991,-150.5 991,-188.5 1103,-188.5 1103,-150.5 991,-150.5"/>
<text text-anchor="middle" x="1047" y="-173.3" font-family="Times,serif" font-size="14.00">npm&#45;package&#45;arg</text>
<text text-anchor="middle" x="1047" y="-158.3" font-family="Times,serif" font-size="14.00">6.1.0</text>
</g>
<!-- @angular/cli\n7.3.5&#45;&gt;npm&#45;package&#45;arg\n6.1.0 -->
<g id="edge19" class="edge"><title>@angular/cli\n7.3.5&#45;&gt;npm&#45;package&#45;arg\n6.1.0</title>
<path fill="none" stroke="black" d="M911.788,-113.358C936.401,-123.395 967.317,-136.004 993.373,-146.63"/>
<polygon fill="black" stroke="black" points="992.151,-149.911 1002.73,-150.447 994.794,-143.429 992.151,-149.911"/>
</g>
<!-- opn\n5.4.0 -->
<g id="node17" class="node"><title>opn\n5.4.0</title>
<polygon fill="white" stroke="black" points="1121,-150.5 1121,-188.5 1175,-188.5 1175,-150.5 1121,-150.5"/>
<text text-anchor="middle" x="1148" y="-173.3" font-family="Times,serif" font-size="14.00">opn</text>
<text text-anchor="middle" x="1148" y="-158.3" font-family="Times,serif" font-size="14.00">5.4.0</text>
</g>
<!-- @angular/cli\n7.3.5&#45;&gt;opn\n5.4.0 -->
<g id="edge20" class="edge"><title>@angular/cli\n7.3.5&#45;&gt;opn\n5.4.0</title>
<path fill="none" stroke="black" d="M911.512,-111.267C914.706,-112.246 917.893,-113.17 921,-114 1001.44,-135.491 1028.35,-122.955 1111.27,-150.272"/>
<polygon fill="black" stroke="black" points="1110.25,-153.62 1120.84,-153.516 1112.5,-146.99 1110.25,-153.62"/>
</g>
<!-- pacote\n9.4.0 -->
<g id="node18" class="node"><title>pacote\n9.4.0</title>
<polygon fill="white" stroke="black" points="1193,-150.5 1193,-188.5 1247,-188.5 1247,-150.5 1193,-150.5"/>
<text text-anchor="middle" x="1220" y="-173.3" font-family="Times,serif" font-size="14.00">pacote</text>
<text text-anchor="middle" x="1220" y="-158.3" font-family="Times,serif" font-size="14.00">9.4.0</text>
</g>
<!-- @angular/cli\n7.3.5&#45;&gt;pacote\n9.4.0 -->
<g id="edge21" class="edge"><title>@angular/cli\n7.3.5&#45;&gt;pacote\n9.4.0</title>
<path fill="none" stroke="black" d="M911.758,-111.531C914.865,-112.435 917.968,-113.271 921,-114 1032.57,-140.824 1069.46,-115.969 1183.12,-150.324"/>
<polygon fill="black" stroke="black" points="1182.3,-153.735 1192.89,-153.364 1184.38,-147.051 1182.3,-153.735"/>
</g>
<!-- semver\n5.6.0 -->
<g id="node19" class="node"><title>semver\n5.6.0</title>
<polygon fill="white" stroke="black" points="1265,-150.5 1265,-188.5 1321,-188.5 1321,-150.5 1265,-150.5"/>
<text text-anchor="middle" x="1293" y="-173.3" font-family="Times,serif" font-size="14.00">semver</text>
<text text-anchor="middle" x="1293" y="-158.3" font-family="Times,serif" font-size="14.00">5.6.0</text>
</g>
<!-- @angular/cli\n7.3.5&#45;&gt;semver\n5.6.0 -->
<g id="edge22" class="edge"><title>@angular/cli\n7.3.5&#45;&gt;semver\n5.6.0</title>
<path fill="none" stroke="black" d="M911.734,-111.632C914.847,-112.512 917.957,-113.315 921,-114 1063.95,-146.183 1110.32,-109.492 1255.05,-150.308"/>
<polygon fill="black" stroke="black" points="1254.15,-153.691 1264.73,-153.11 1256.1,-146.967 1254.15,-153.691"/>
</g>
<!-- symbol&#45;observable\n1.2.0 -->
<g id="node20" class="node"><title>symbol&#45;observable\n1.2.0</title>
<polygon fill="white" stroke="black" points="1339,-150.5 1339,-188.5 1459,-188.5 1459,-150.5 1339,-150.5"/>
<text text-anchor="middle" x="1399" y="-173.3" font-family="Times,serif" font-size="14.00">symbol&#45;observable</text>
<text text-anchor="middle" x="1399" y="-158.3" font-family="Times,serif" font-size="14.00">1.2.0</text>
</g>
<!-- @angular/cli\n7.3.5&#45;&gt;symbol&#45;observable\n1.2.0 -->
<g id="edge23" class="edge"><title>@angular/cli\n7.3.5&#45;&gt;symbol&#45;observable\n1.2.0</title>
<path fill="none" stroke="black" d="M911.72,-111.699C914.836,-112.564 917.951,-113.344 921,-114 1096.18,-151.67 1148.42,-119.46 1328.84,-149.984"/>
<polygon fill="black" stroke="black" points="1328.48,-153.474 1338.93,-151.733 1329.67,-146.576 1328.48,-153.474"/>
</g>
<!-- @angular&#45;devkit/architect\n0.13.5&#45;&gt;@angular&#45;devkit/core\n7.3.5 -->
<g id="edge3" class="edge"><title>@angular&#45;devkit/architect\n0.13.5&#45;&gt;@angular&#45;devkit/core\n7.3.5</title>
<path fill="none" stroke="black" d="M269,-188.545C269,-196.617 269,-206.324 269,-215.318"/>
<polygon fill="black" stroke="black" points="265.5,-215.41 269,-225.41 272.5,-215.41 265.5,-215.41"/>
</g>
<!-- rxjs\n6.3.3 -->
<g id="node5" class="node"><title>rxjs\n6.3.3</title>
<polygon fill="white" stroke="black" points="93,-300.5 93,-338.5 147,-338.5 147,-300.5 93,-300.5"/>
<text text-anchor="middle" x="120" y="-323.3" font-family="Times,serif" font-size="14.00">rxjs</text>
<text text-anchor="middle" x="120" y="-308.3" font-family="Times,serif" font-size="14.00">6.3.3</text>
</g>
<!-- @angular&#45;devkit/architect\n0.13.5&#45;&gt;rxjs\n6.3.3 -->
<g id="edge4" class="edge"><title>@angular&#45;devkit/architect\n0.13.5&#45;&gt;rxjs\n6.3.3</title>
<path fill="none" stroke="black" d="M239.268,-188.53C224.276,-198.346 206.292,-211.272 192,-225 170.858,-245.307 150.857,-272.124 137.326,-291.829"/>
<polygon fill="black" stroke="black" points="134.279,-290.087 131.584,-300.333 140.08,-294.004 134.279,-290.087"/>
</g>
<!-- @angular&#45;devkit/core\n7.3.5&#45;&gt;rxjs\n6.3.3 -->
<g id="edge9" class="edge"><title>@angular&#45;devkit/core\n7.3.5&#45;&gt;rxjs\n6.3.3</title>
<path fill="none" stroke="black" d="M230.959,-263.552C210.959,-273.11 185.863,-285.208 156.054,-300.02"/>
<polygon fill="black" stroke="black" points="154.48,-296.894 147.09,-304.486 157.601,-303.16 154.48,-296.894"/>
</g>
<!-- ajv\n6.9.1 -->
<g id="node6" class="node"><title>ajv\n6.9.1</title>
<polygon fill="white" stroke="black" points="165,-300.5 165,-338.5 219,-338.5 219,-300.5 165,-300.5"/>
<text text-anchor="middle" x="192" y="-323.3" font-family="Times,serif" font-size="14.00">ajv</text>
<text text-anchor="middle" x="192" y="-308.3" font-family="Times,serif" font-size="14.00">6.9.1</text>
</g>
<!-- @angular&#45;devkit/core\n7.3.5&#45;&gt;ajv\n6.9.1 -->
<g id="edge6" class="edge"><title>@angular&#45;devkit/core\n7.3.5&#45;&gt;ajv\n6.9.1</title>
<path fill="none" stroke="black" d="M249.966,-263.545C240.434,-272.582 228.741,-283.668 218.359,-293.51"/>
<polygon fill="black" stroke="black" points="215.931,-290.99 211.082,-300.41 220.747,-296.07 215.931,-290.99"/>
</g>
<!-- chokidar\n2.0.4 -->
<g id="node7" class="node"><title>chokidar\n2.0.4</title>
<polygon fill="white" stroke="black" points="237,-300.5 237,-338.5 301,-338.5 301,-300.5 237,-300.5"/>
<text text-anchor="middle" x="269" y="-323.3" font-family="Times,serif" font-size="14.00">chokidar</text>
<text text-anchor="middle" x="269" y="-308.3" font-family="Times,serif" font-size="14.00">2.0.4</text>
</g>
<!-- @angular&#45;devkit/core\n7.3.5&#45;&gt;chokidar\n2.0.4 -->
<g id="edge7" class="edge"><title>@angular&#45;devkit/core\n7.3.5&#45;&gt;chokidar\n2.0.4</title>
<path fill="none" stroke="black" d="M269,-263.545C269,-271.617 269,-281.324 269,-290.318"/>
<polygon fill="black" stroke="black" points="265.5,-290.41 269,-300.41 272.5,-290.41 265.5,-290.41"/>
</g>
<!-- fast&#45;json&#45;stable&#45;stringify\n2.0.0 -->
<g id="node8" class="node"><title>fast&#45;json&#45;stable&#45;stringify\n2.0.0</title>
<polygon fill="white" stroke="black" points="318.5,-300.5 318.5,-338.5 467.5,-338.5 467.5,-300.5 318.5,-300.5"/>
<text text-anchor="middle" x="393" y="-323.3" font-family="Times,serif" font-size="14.00">fast&#45;json&#45;stable&#45;stringify</text>
<text text-anchor="middle" x="393" y="-308.3" font-family="Times,serif" font-size="14.00">2.0.0</text>
</g>
<!-- @angular&#45;devkit/core\n7.3.5&#45;&gt;fast&#45;json&#45;stable&#45;stringify\n2.0.0 -->
<g id="edge8" class="edge"><title>@angular&#45;devkit/core\n7.3.5&#45;&gt;fast&#45;json&#45;stable&#45;stringify\n2.0.0</title>
<path fill="none" stroke="black" d="M299.652,-263.545C315.897,-273.109 336.039,-284.967 353.45,-295.217"/>
<polygon fill="black" stroke="black" points="351.878,-298.353 362.271,-300.41 355.429,-292.32 351.878,-298.353"/>
</g>
<!-- source&#45;map\n0.7.3 -->
<g id="node9" class="node"><title>source&#45;map\n0.7.3</title>
<polygon fill="white" stroke="black" points="486,-300.5 486,-338.5 566,-338.5 566,-300.5 486,-300.5"/>
<text text-anchor="middle" x="526" y="-323.3" font-family="Times,serif" font-size="14.00">source&#45;map</text>
<text text-anchor="middle" x="526" y="-308.3" font-family="Times,serif" font-size="14.00">0.7.3</text>
</g>
<!-- @angular&#45;devkit/core\n7.3.5&#45;&gt;source&#45;map\n0.7.3 -->
<g id="edge10" class="edge"><title>@angular&#45;devkit/core\n7.3.5&#45;&gt;source&#45;map\n0.7.3</title>
<path fill="none" stroke="black" d="M336.961,-261.398C375.453,-270.847 424.604,-283.652 476.1,-299.853"/>
<polygon fill="black" stroke="black" points="475.15,-303.224 485.741,-302.918 477.271,-296.553 475.15,-303.224"/>
</g>
<!-- @angular&#45;devkit/schematics\n7.3.5&#45;&gt;@angular&#45;devkit/core\n7.3.5 -->
<g id="edge12" class="edge"><title>@angular&#45;devkit/schematics\n7.3.5&#45;&gt;@angular&#45;devkit/core\n7.3.5</title>
<path fill="none" stroke="black" d="M131.236,-188.545C156.311,-198.547 187.676,-211.059 214.142,-221.617"/>
<polygon fill="black" stroke="black" points="213.065,-224.955 223.65,-225.41 215.659,-218.454 213.065,-224.955"/>
</g>
<!-- @angular&#45;devkit/schematics\n7.3.5&#45;&gt;rxjs\n6.3.3 -->
<g id="edge13" class="edge"><title>@angular&#45;devkit/schematics\n7.3.5&#45;&gt;rxjs\n6.3.3</title>
<path fill="none" stroke="black" d="M90.1691,-188.648C96.0063,-214.057 106.669,-260.471 113.539,-290.376"/>
<polygon fill="black" stroke="black" points="110.147,-291.241 115.797,-300.204 116.969,-289.674 110.147,-291.241"/>
</g>
</g>
</svg>
