<?xml version="1.0" encoding="UTF-8" standalone="no"?>
<!DOCTYPE svg PUBLIC "-//W3C//DTD SVG 1.1//EN"
 "http://www.w3.org/Graphics/SVG/1.1/DTD/svg11.dtd">
<!-- Generated by graphviz version 2.38.0 (20140413.2041)
 -->
<!-- Title: DeviceTypeHierarchy_Oblamatikproducts Pages: 1 -->
<svg width="394pt" height="272pt"
 viewBox="0.00 0.00 394.00 272.00" xmlns="http://www.w3.org/2000/svg" xmlns:xlink="http://www.w3.org/1999/xlink">
<g id="graph0" class="graph" transform="scale(1 1) rotate(0) translate(4 268)">
<title>DeviceTypeHierarchy_Oblamatikproducts</title>
<polygon fill="white" stroke="none" points="-4,4 -4,-268 390,-268 390,4 -4,4"/>
<!-- node&#45;dependency&#45;visualizer\n0.0.0 -->
<g id="node1" class="node"><title>node&#45;dependency&#45;visualizer\n0.0.0</title>
<polygon fill="white" stroke="black" points="101.5,-0.5 101.5,-38.5 270.5,-38.5 270.5,-0.5 101.5,-0.5"/>
<text text-anchor="middle" x="186" y="-23.3" font-family="Times,serif" font-size="14.00">node&#45;dependency&#45;visualizer</text>
<text text-anchor="middle" x="186" y="-8.3" font-family="Times,serif" font-size="14.00">0.0.0</text>
</g>
<!-- @angular/cli\n7.3.5 -->
<g id="node2" class="node"><title>@angular/cli\n7.3.5</title>
<polygon fill="white" stroke="black" points="142.5,-75.5 142.5,-113.5 229.5,-113.5 229.5,-75.5 142.5,-75.5"/>
<text text-anchor="middle" x="186" y="-98.3" font-family="Times,serif" font-size="14.00">@angular/cli</text>
<text text-anchor="middle" x="186" y="-83.3" font-family="Times,serif" font-size="14.00">7.3.5</text>
</g>
<!-- node&#45;dependency&#45;visualizer\n0.0.0&#45;&gt;@angular/cli\n7.3.5 -->
<g id="edge1" class="edge"><title>node&#45;dependency&#45;visualizer\n0.0.0&#45;&gt;@angular/cli\n7.3.5</title>
<path fill="none" stroke="black" d="M186,-38.5449C186,-46.6172 186,-56.3236 186,-65.3183"/>
<polygon fill="black" stroke="black" points="182.5,-65.4096 186,-75.4096 189.5,-65.4097 182.5,-65.4096"/>
</g>
<!-- @angular&#45;devkit/architect\n0.13.5 -->
<g id="node3" class="node"><title>@angular&#45;devkit/architect\n0.13.5</title>
<polygon fill="white" stroke="black" points="0,-150.5 0,-188.5 158,-188.5 158,-150.5 0,-150.5"/>
<text text-anchor="middle" x="79" y="-173.3" font-family="Times,serif" font-size="14.00">@angular&#45;devkit/architect</text>
<text text-anchor="middle" x="79" y="-158.3" font-family="Times,serif" font-size="14.00">0.13.5</text>
</g>
<!-- @angular/cli\n7.3.5&#45;&gt;@angular&#45;devkit/architect\n0.13.5 -->
<g id="edge2" class="edge"><title>@angular/cli\n7.3.5&#45;&gt;@angular&#45;devkit/architect\n0.13.5</title>
<path fill="none" stroke="black" d="M159.551,-113.545C145.79,-122.933 128.788,-134.532 113.957,-144.651"/>
<polygon fill="black" stroke="black" points="111.804,-141.883 105.516,-150.41 115.749,-147.665 111.804,-141.883"/>
</g>
<!-- @angular&#45;devkit/core\n7.3.5 -->
<g id="node4" class="node"><title>@angular&#45;devkit/core\n7.3.5</title>
<polygon fill="white" stroke="black" points="118.5,-225.5 118.5,-263.5 253.5,-263.5 253.5,-225.5 118.5,-225.5"/>
<text text-anchor="middle" x="186" y="-248.3" font-family="Times,serif" font-size="14.00">@angular&#45;devkit/core</text>
<text text-anchor="middle" x="186" y="-233.3" font-family="Times,serif" font-size="14.00">7.3.5</text>
</g>
<!-- @angular/cli\n7.3.5&#45;&gt;@angular&#45;devkit/core\n7.3.5 -->
<g id="edge4" class="edge"><title>@angular/cli\n7.3.5&#45;&gt;@angular&#45;devkit/core\n7.3.5</title>
<path fill="none" stroke="black" d="M186,-113.648C186,-138.946 186,-185.066 186,-214.983"/>
<polygon fill="black" stroke="black" points="182.5,-215.204 186,-225.204 189.5,-215.204 182.5,-215.204"/>
</g>
<!-- @angular&#45;devkit/schematics\n7.3.5 -->
<g id="node5" class="node"><title>@angular&#45;devkit/schematics\n7.3.5</title>
<polygon fill="white" stroke="black" points="214,-150.5 214,-188.5 386,-188.5 386,-150.5 214,-150.5"/>
<text text-anchor="middle" x="300" y="-173.3" font-family="Times,serif" font-size="14.00">@angular&#45;devkit/schematics</text>
<text text-anchor="middle" x="300" y="-158.3" font-family="Times,serif" font-size="14.00">7.3.5</text>
</g>
<!-- @angular/cli\n7.3.5&#45;&gt;@angular&#45;devkit/schematics\n7.3.5 -->
<g id="edge5" class="edge"><title>@angular/cli\n7.3.5&#45;&gt;@angular&#45;devkit/schematics\n7.3.5</title>
<path fill="none" stroke="black" d="M214.18,-113.545C228.978,-123.021 247.293,-134.749 263.199,-144.934"/>
<polygon fill="black" stroke="black" points="261.44,-147.964 271.749,-150.41 265.215,-142.069 261.44,-147.964"/>
</g>
<!-- @angular&#45;devkit/architect\n0.13.5&#45;&gt;@angular&#45;devkit/core\n7.3.5 -->
<g id="edge3" class="edge"><title>@angular&#45;devkit/architect\n0.13.5&#45;&gt;@angular&#45;devkit/core\n7.3.5</title>
<path fill="none" stroke="black" d="M105.449,-188.545C119.21,-197.933 136.212,-209.532 151.043,-219.651"/>
<polygon fill="black" stroke="black" points="149.251,-222.665 159.484,-225.41 153.196,-216.883 149.251,-222.665"/>
</g>
<!-- @angular&#45;devkit/schematics\n7.3.5&#45;&gt;@angular&#45;devkit/core\n7.3.5 -->
<g id="edge6" class="edge"><title>@angular&#45;devkit/schematics\n7.3.5&#45;&gt;@angular&#45;devkit/core\n7.3.5</title>
<path fill="none" stroke="black" d="M271.82,-188.545C257.022,-198.021 238.707,-209.749 222.801,-219.934"/>
<polygon fill="black" stroke="black" points="220.785,-217.069 214.251,-225.41 224.56,-222.964 220.785,-217.069"/>
</g>
</g>
</svg>
